<svg width="51" height="51" viewBox="0 0 51 51" fill="none" xmlns="http://www.w3.org/2000/svg">
<rect width="50.4863" height="50.4863" rx="8.07781" fill="#0A66C2"/>
<path d="M32.1556 23.0778H33.1653C33.4331 23.0778 33.69 23.1842 33.8793 23.3736C34.0687 23.5629 34.1751 23.8197 34.1751 24.0875V34.1848C34.1751 34.4526 34.0687 34.7094 33.8793 34.8988C33.69 35.0881 33.4331 35.1945 33.1653 35.1945H17.0097C16.7419 35.1945 16.4851 35.0881 16.2957 34.8988C16.1064 34.7094 16 34.4526 16 34.1848L16 24.0875C16 23.8197 16.1064 23.5629 16.2957 23.3736C16.4851 23.1842 16.7419 23.0778 17.0097 23.0778H18.0195V22.0681C18.0195 21.1399 18.2023 20.2208 18.5575 19.3632C18.9127 18.5057 19.4333 17.7265 20.0896 17.0702C20.746 16.4139 21.5252 15.8932 22.3827 15.538C23.2402 15.1828 24.1593 15 25.0875 15C26.0157 15 26.9348 15.1828 27.7924 15.538C28.6499 15.8932 29.4291 16.4139 30.0854 17.0702C30.7418 17.7265 31.2624 18.5057 31.6176 19.3632C31.9728 20.2208 32.1556 21.1399 32.1556 22.0681V23.0778ZM18.0195 25.0973V33.1751H32.1556V25.0973H18.0195ZM24.0778 27.1167H26.0973V31.1556H24.0778V27.1167ZM30.1362 23.0778V22.0681C30.1362 20.7291 29.6043 19.445 28.6575 18.4982C27.7107 17.5514 26.4265 17.0195 25.0875 17.0195C23.7486 17.0195 22.4644 17.5514 21.5176 18.4982C20.5708 19.445 20.0389 20.7291 20.0389 22.0681V23.0778H30.1362Z" fill="white"/>
</svg>
