<svg width="39" height="39" viewBox="0 0 39 39" fill="none" xmlns="http://www.w3.org/2000/svg">
<path d="M19.5 11.2778V19.5L25.6667 25.6667M38 19.5C38 21.9295 37.5215 24.3351 36.5918 26.5796C35.6621 28.8242 34.2994 30.8636 32.5815 32.5815C30.8636 34.2994 28.8242 35.6621 26.5796 36.5918C24.3351 37.5215 21.9295 38 19.5 38C17.0705 38 14.6649 37.5215 12.4204 36.5918C10.1758 35.6621 8.13641 34.2994 6.41852 32.5815C4.70064 30.8636 3.33794 28.8242 2.40823 26.5796C1.47852 24.3351 1 21.9295 1 19.5C1 14.5935 2.9491 9.88795 6.41852 6.41852C9.88795 2.9491 14.5935 1 19.5 1C24.4065 1 29.1121 2.9491 32.5815 6.41852C36.0509 9.88795 38 14.5935 38 19.5Z" stroke="#666666" stroke-width="2" stroke-linecap="round" stroke-linejoin="round"/>
</svg>
