<svg width="21" height="19" viewBox="0 0 21 19" fill="none" xmlns="http://www.w3.org/2000/svg">
<path fill-rule="evenodd" clip-rule="evenodd" d="M5.59032 4.43408C5.59146 4.35816 5.59477 4.27571 5.60119 4.18779C5.63239 3.76053 5.73941 3.17508 6.0534 2.58075C6.72719 1.30541 8.14463 0.351562 10.6888 0.351562C13.233 0.351562 14.6504 1.30541 15.3242 2.58075C15.6382 3.17508 15.7452 3.76054 15.7764 4.18779C15.7828 4.27571 15.7861 4.35816 15.7873 4.43408H20.6211V8.42383C20.6211 10.0807 19.2779 11.4238 17.6211 11.4238H3.60645C1.94959 11.4238 0.606445 10.0807 0.606445 8.42383V4.43408H5.59032ZM13.7867 4.43408C13.7859 4.40997 13.7846 4.38419 13.7826 4.35695C13.7677 4.15244 13.7173 3.89554 13.5863 3.64752C13.37 3.23816 12.7468 2.50731 10.6888 2.50731C8.63079 2.50731 8.00763 3.23816 7.79136 3.64752C7.66033 3.89554 7.60996 4.15244 7.59502 4.35695C7.59303 4.38419 7.59171 4.40997 7.59091 4.43408H13.7867Z" fill="#666666"/>
<path d="M0.606445 11.4238C0.606445 11.4238 1.21421 12.4659 10.6138 12.4659C20.0133 12.4659 20.6211 11.4238 20.6211 11.4238V15.4136C20.6211 17.0704 19.2779 18.4136 17.6211 18.4136H3.60645C1.94959 18.4136 0.606445 17.0704 0.606445 15.4136V11.4238Z" fill="#666666"/>
</svg>
